name analog
datacolumns 19
datarows 22
range 0.167 0.1775
endheader
time	ground_force_vx	ground_force_vy	ground_force_vz	ground_force_px	ground_force_py	ground_force_pz	l_ground_force_vx	l_ground_force_vy	l_ground_force_vz	l_ground_force_px	l_ground_force_py	l_ground_force_pz	ground_torque_x	ground_torque_y	ground_torque_z	l_ground_torque_x	l_ground_torque_y	l_ground_torque_z
0.167	-0.0	-0.0	-0.0	-0.0	-0.0	-0.0	-6.0323333740234375	-1.6464389562606812	-713.3035278320312	-0.0	-0.0	-0.0	-0.0	-0.0	-0.0	247417.796875	-1471.689208984375	-1131.94189453125
0.1675	-0.0	-0.0	-0.0	-0.0	-0.0	-0.0	-6.738836288452148	-2.1796581745147705	-714.5635375976562	-0.0	-0.0	-0.0	-0.0	-0.0	-0.0	247440.890625	-808.1547241210938	-1240.6383056640625
0.168	-0.0	-0.0	-0.0	-0.0	-0.0	-0.0	-7.901339054107666	-2.5268445014953613	-714.3642578125	-0.0	-0.0	-0.0	-0.0	-0.0	-0.0	246823.46875	-355.0736389160156	-1649.365478515625
0.1685	-0.0	-0.0	-0.0	-0.0	-0.0	-0.0	-8.665027618408203	-2.943119525909424	-712.7311401367188	-0.0	-0.0	-0.0	-0.0	-0.0	-0.0	246319.4375	107.24899291992188	-1836.507080078125
0.169	-0.0	-0.0	-0.0	-0.0	-0.0	-0.0	-9.403343200683594	-3.763947725296021	-710.7703247070312	-0.0	-0.0	-0.0	-0.0	-0.0	-0.0	245615.921875	1022.6056518554688	-2302.260009765625
0.1695	-0.0	-0.0	-0.0	-0.0	-0.0	-0.0	-10.585325241088867	-4.533021450042725	-708.78759765625	-0.0	-0.0	-0.0	-0.0	-0.0	-0.0	244820.140625	1456.2193603515625	-2688.885498046875
0.17	-0.0	-0.0	-0.0	-0.0	-0.0	-0.0	-12.095757484436035	-5.239663124084473	-707.879638671875	-0.0	-0.0	-0.0	-0.0	-0.0	-0.0	244153.859375	2108.3193359375	-3135.81689453125
0.1705	-0.0	-0.0	-0.0	-0.0	-0.0	-0.0	-13.011627197265623	-5.654715538024902	-707.154052734375	-0.0	-0.0	-0.0	-0.0	-0.0	-0.0	243470.015625	2368.739990234375	-3608.97412109375
0.171	-0.0	-0.0	-0.0	-0.0	-0.0	-0.0	-13.60360050201416	-5.712106227874756	-703.4266967773438	-0.0	-0.0	-0.0	-0.0	-0.0	-0.0	243232.546875	2937.011962890625	-3859.060791015625
0.1715	-0.0	-0.0	-0.0	-0.0	-0.0	-0.0	-15.022852897644045	-6.095928192138672	-706.347412109375	-0.0	-0.0	-0.0	-0.0	-0.0	-0.0	243383.859375	3167.92724609375	-4364.3154296875
0.17200000000000001	-0.0	-0.0	-0.0	-0.0	-0.0	-0.0	-15.616291046142578	-6.357572078704834	-707.0509033203125	-0.0	-0.0	-0.0	-0.0	-0.0	-0.0	244062.78125	3155.442626953125	-4620.89111328125
0.17250000000000001	-0.0	-0.0	-0.0	-0.0	-0.0	-0.0	-15.466166496276855	-6.392263412475586	-709.023193359375	-0.0	-0.0	-0.0	-0.0	-0.0	-0.0	244857.109375	3280.58935546875	-4669.41650390625
0.17300000000000001	-0.0	-0.0	-0.0	-0.0	-0.0	-0.0	-15.139150619506836	-6.211548805236816	-712.0300903320312	-0.0	-0.0	-0.0	-0.0	-0.0	-0.0	246302.546875	3066.746826171875	-4570.443359375
0.17350000000000002	-0.0	-0.0	-0.0	-0.0	-0.0	-0.0	-13.956815719604492	-5.798060417175293	-715.41162109375	-0.0	-0.0	-0.0	-0.0	-0.0	-0.0	247492.796875	2880.447998046875	-4253.705078125
0.17400000000000002	-0.0	-0.0	-0.0	-0.0	-0.0	-0.0	-13.27565097808838	-5.239307880401611	-718.3201293945312	-0.0	-0.0	-0.0	-0.0	-0.0	-0.0	248694.984375	2647.838134765625	-3946.5751953125
0.17450000000000002	-0.0	-0.0	-0.0	-0.0	-0.0	-0.0	-12.33218765258789	-5.2993011474609375	-722.7493286132812	-0.0	-0.0	-0.0	-0.0	-0.0	-0.0	250088.3125	2623.265869140625	-3768.103271484375
0.17500000000000002	-0.0	-0.0	-0.0	-0.0	-0.0	-0.0	-12.300910949707031	-5.063618183135986	-726.8179321289062	-0.0	-0.0	-0.0	-0.0	-0.0	-0.0	250958.140625	2529.066162109375	-3678.54052734375
0.17550000000000002	-0.0	-0.0	-0.0	-0.0	-0.0	-0.0	-11.857477188110352	-5.358280658721924	-727.630859375	-0.0	-0.0	-0.0	-0.0	-0.0	-0.0	252185.171875	2379.588623046875	-3697.89111328125
0.176	-0.0	-0.0	-0.0	-0.0	-0.0	-0.0	-11.709671020507812	-4.916472434997559	-730.0765991210938	-0.0	-0.0	-0.0	-0.0	-0.0	-0.0	252976.5	2446.655029296875	-3579.132568359375
0.1765	-0.0	-0.0	-0.0	-0.0	-0.0	-0.0	-12.005547523498535	-4.504599571228027	-731.47265625	-0.0	-0.0	-0.0	-0.0	-0.0	-0.0	253570.96875	2217.35009765625	-3737.47802734375
0.177	-0.0	-0.0	-0.0	-0.0	-0.0	-0.0	-11.71023941040039	-4.709937572479248	-733.1041259765625	-0.0	-0.0	-0.0	-0.0	-0.0	-0.0	254045.671875	2446.883544921875	-3826.41357421875
0.1775	-0.0	-0.0	-0.0	-0.0	-0.0	-0.0	-12.301095008850098	-5.064309120178223	-733.1015014648438	-0.0	-0.0	-0.0	-0.0	-0.0	-0.0	253911.78125	2337.232421875	-3985.150390625
